# xmcd
#
# Track frame offsets:
#	150
#	16699
#	33879
#	54329
#	72431
#	88336
#	107103
#	125509
#	142807
#	160499
#	179057
#	201465
#	217596
#	234001
#	252251
#	279583
#
# Disc length: 4318 seconds
#
# Revision: 1
# Processed by: cddbd v1.5.2PL0 Copyright (c) Steve Scherf et al.
# Submitted via: audiograbber 1.83.01
#
DISCID=de10dc10
DTITLE=Various Artist - ASK57 Best of Millennium Country vol.1 d2 
DYEAR=1900
DGENRE=Country
TTITLE0=Le Ann Rimes - Probably wouldn't be this way
TTITLE1=Lee Ann Womack - I may hate myself in the morning
TTITLE2=Martina McBride - Where would you be
TTITLE3=Martina McBride - How Far
TTITLE4=Montgomery Gentry - If you ever stop loving me 
TTITLE5=Pat Green - Wave on Wave
TTITLE6=Rascal Flats - Mayberry
TTITLE7=Rascal Flats - Bless the broken road
TTITLE8=Rebecca Lynn Howard - Forgive
TTITLE9=Sara Evans - A real fine place to start
TTITLE10=Shania Twain -  Forever and always
TTITLE11=Terri Clark - Girls lie too
TTITLE12=Toby Keith - Courtesy of the red white and blue
TTITLE13=Toby Keith - I love this bar
TTITLE14=Trace Adkins - Hot Mama
TTITLE15=data - Data Track
EXTD=
EXTT0=
EXTT1=
EXTT2=
EXTT3=
EXTT4=
EXTT5=
EXTT6=
EXTT7=
EXTT8=
EXTT9=
EXTT10=
EXTT11=
EXTT12=
EXTT13=
EXTT14=
EXTT15=
PLAYORDER=
